<?xml version="1.0" encoding="UTF-8" standalone="no"?>
<!-- Created with Inkscape (http://www.inkscape.org/) -->

<svg
   xmlns:dc="http://purl.org/dc/elements/1.1/"
   xmlns:cc="http://creativecommons.org/ns#"
   xmlns:rdf="http://www.w3.org/1999/02/22-rdf-syntax-ns#"
   xmlns:svg="http://www.w3.org/2000/svg"
   xmlns="http://www.w3.org/2000/svg"
   xmlns:sodipodi="http://sodipodi.sourceforge.net/DTD/sodipodi-0.dtd"
   xmlns:inkscape="http://www.inkscape.org/namespaces/inkscape"
   width="210mm"
   height="297mm"
   viewBox="0 0 210 297"
   version="1.1"
   id="svg8"
   inkscape:version="0.92.1 r15371"
   sodipodi:docname="veganizando.svg">
  <defs
     id="defs2" />
  <sodipodi:namedview
     id="base"
     pagecolor="#ffffff"
     bordercolor="#666666"
     borderopacity="1.0"
     inkscape:pageopacity="0.0"
     inkscape:pageshadow="2"
     inkscape:zoom="5.6568543"
     inkscape:cx="199.84764"
     inkscape:cy="738.01933"
     inkscape:document-units="mm"
     inkscape:current-layer="layer1"
     showgrid="false"
     inkscape:snap-global="false"
     inkscape:window-width="1600"
     inkscape:window-height="838"
     inkscape:window-x="-8"
     inkscape:window-y="-8"
     inkscape:window-maximized="1" />
  <metadata
     id="metadata5">
    <rdf:RDF>
      <cc:Work
         rdf:about="">
        <dc:format>image/svg+xml</dc:format>
        <dc:type
           rdf:resource="http://purl.org/dc/dcmitype/StillImage" />
        <dc:title />
      </cc:Work>
    </rdf:RDF>
  </metadata>
  <g
     inkscape:label="Camada 1"
     inkscape:groupmode="layer"
     id="layer1">
    <path
       style="fill:#2ca02c;fill-rule:evenodd;stroke:#005500;stroke-width:0.26458332px;stroke-linecap:butt;stroke-linejoin:miter;stroke-opacity:1"
       d="m 60.218542,92.762104 c 0,0 -0.330763,0.385989 -0.551835,0.496466 -2.105561,1.05222 -4.096372,3.264591 -4.33084,6.126595 -1.258859,-2.785043 -3.490877,-4.98938 -5.855296,-6.305637 -0.368544,-0.205165 -0.902373,-0.886149 -0.902373,-0.886149 -0.725515,1.796763 -1.135748,3.581564 -1.123655,5.314188 -1.229769,-0.637988 -2.666551,-0.921089 -4.225294,-0.941566 0,0 0.296396,0.524648 0.32984,0.815877 0.405145,3.521642 2.96702,7.589562 7.880197,8.038032 1.146041,0.97215 2.561129,1.89146 4.290037,2.74334 0.0014,-0.005 0.0026,-0.009 0.0038,-0.0115 -1.803198,-4.39332 -2.918459,-8.417975 -6.594369,-12.073462 1.707417,0.902006 3.252463,2.07216 4.282273,3.742465 1.466322,2.378287 2.323875,5.320137 2.32166,8.303397 0.280273,-0.84563 0.463103,-1.67427 0.561372,-2.48183 6.007716,-1.73789 7.429428,-5.49376 6.650914,-9.790192 0,0 -0.458724,0.391002 -0.73815,0.479566 -0.5546,0.175777 -1.110904,0.417663 -1.654061,0.710387 0.338688,-1.35026 0.169428,-2.800339 -0.344194,-4.279916 z m -0.434646,2.272939 c -2.00236,1.825004 -2.827709,3.881343 -3.813457,6.100877 -0.0595,-0.21507 -0.123303,-0.4283 -0.194215,-0.63793 0.250649,-1.232388 0.735866,-2.396904 1.401749,-3.378474 0.647924,-0.95511 1.583056,-1.601225 2.605923,-2.084473 z m 2.244057,3.395104 c -2.722536,1.792563 -4.068401,4.086433 -5.661845,6.541613 0.02268,-0.35078 0.02853,-0.69709 0.02013,-1.03891 0.519637,-1.33617 1.277736,-2.55591 2.204055,-3.54451 0.934816,-0.997702 2.149924,-1.581058 3.437664,-1.958193 z M 45.582822,97.968269 c 0.947873,2.306761 2.340863,3.875741 3.884146,5.396841 0.510876,0.67382 1.12976,1.32812 1.860911,1.96034 -1.817574,-0.80934 -3.390024,-2.09884 -4.480331,-3.60837 -0.800543,-1.10832 -1.140806,-2.412689 -1.264726,-3.748811 z"
       id="path3745"
       inkscape:connector-curvature="0"
       sodipodi:nodetypes="cscccccccccccccccccccccccccccccccccc"
       inkscape:export-filename="C:\Users\Usuário\Downloads\(X)HTML\other\Fábia Cretti\ProjetoPOO\web\rs\img\logo-notype-v1.png"
       inkscape:export-xdpi="250"
       inkscape:export-ydpi="250" />
    <g
       aria-label="V"
       style="font-style:normal;font-variant:normal;font-weight:normal;font-stretch:normal;font-size:15.31161594px;line-height:139.99999762%;font-family:'Comic Sans MS';-inkscape-font-specification:'Comic Sans MS';text-align:center;letter-spacing:0px;word-spacing:0px;writing-mode:lr-tb;text-anchor:middle;fill:#1a1a1a;fill-opacity:1;stroke:none;stroke-width:0.26458332px;stroke-linecap:butt;stroke-linejoin:miter;stroke-opacity:1"
       id="text3726"
       transform="translate(26.021807,-0.1984375)">
      <path
         d="m 33.588745,94.22764 h -2.594302 l -2.870928,6.60164 -2.863452,-6.60164 h -2.564396 l 5.435324,12.32107 z"
         style="font-style:normal;font-variant:normal;font-weight:normal;font-stretch:normal;font-family:'Lemon/Milk';-inkscape-font-specification:'Lemon/Milk';fill:#1a1a1a;stroke-width:0.26458332px"
         id="path3763"
         inkscape:connector-curvature="0" />
    </g>
    <text
       xml:space="preserve"
       style="font-style:normal;font-variant:normal;font-weight:normal;font-stretch:normal;font-size:7.33350801px;line-height:139.99999762%;font-family:MORVA;-inkscape-font-specification:MORVA;text-align:center;letter-spacing:0px;word-spacing:0px;writing-mode:lr-tb;text-anchor:middle;fill:#000000;fill-opacity:1;stroke:none;stroke-width:0.26458335px;stroke-linecap:butt;stroke-linejoin:miter;stroke-opacity:1"
       x="122.54758"
       y="114.19006"
       id="text3772"
       inkscape:export-xdpi="250"
       inkscape:export-ydpi="250"
       transform="scale(0.99953851,1.0004617)"><tspan
         sodipodi:role="line"
         id="tspan3770"
         x="122.54758"
         y="114.19006"
         style="font-style:normal;font-variant:normal;font-weight:bold;font-stretch:normal;font-family:Philosopher;-inkscape-font-specification:'Philosopher Bold';stroke-width:0.26458335px">EGANIZANDO</tspan></text>
  </g>
</svg>
